<svg aria-hidden="true" style="position: absolute; width: 0; height: 0; overflow: hidden;" version="1.1" xmlns="http://www.w3.org/2000/svg" xmlns:xlink="http://www.w3.org/1999/xlink">
<defs>
<symbol id="icon-check" viewBox="0 0 20 20">
<title>check</title>
<path d="M8.294 16.998c-0.435 0-0.847-0.203-1.111-0.553l-3.573-4.721c-0.465-0.613-0.344-1.486 0.27-1.951 0.615-0.467 1.488-0.344 1.953 0.27l2.351 3.104 5.911-9.492c0.407-0.652 1.267-0.852 1.921-0.445s0.854 1.266 0.446 1.92l-6.984 11.21c-0.242 0.391-0.661 0.635-1.12 0.656-0.022 0.002-0.042 0.002-0.064 0.002z"></path>
</symbol>
<symbol id="icon-location-pin" viewBox="0 0 20 20">
<title>location-pin</title>
<path d="M10 2.009c-2.762 0-5 2.229-5 4.99 0 4.774 5 11 5 11s5-6.227 5-11c0-2.76-2.238-4.99-5-4.99zM10 9.76c-1.492 0-2.7-1.209-2.7-2.7s1.208-2.7 2.7-2.7c1.49 0 2.699 1.209 2.699 2.7s-1.209 2.7-2.699 2.7z"></path>
</symbol>
<symbol id="icon-shopping-cart" viewBox="0 0 20 20">
<title>shopping-cart</title>
<path d="M13 17c0 1.104 0.894 2 2 2 1.104 0 2-0.896 2-2 0-1.106-0.896-2-2-2-1.106 0-2 0.894-2 2zM3 17c0 1.104 0.895 2 2 2 1.103 0 2-0.896 2-2 0-1.106-0.897-2-2-2-1.105 0-2 0.894-2 2zM6.547 12.172l11.068-3.162c0.211-0.061 0.385-0.289 0.385-0.51v-5.5h-14v-1.6c0-0.22-0.181-0.4-0.399-0.4h-3.202c-0.219 0-0.399 0.18-0.399 0.4v1.6h2l1.91 8.957 0.090 0.943v1.649c0 0.219 0.18 0.4 0.4 0.4h13.2c0.22 0 0.4-0.182 0.4-0.4v-1.549h-11.248c-1.15 0-1.174-0.551-0.205-0.828z"></path>
</symbol>
<symbol id="icon-user" viewBox="0 0 20 20">
<title>user</title>
<path d="M7.725 2.146c-1.016 0.756-1.289 1.953-1.239 2.59 0.064 0.779 0.222 1.793 0.222 1.793s-0.313 0.17-0.313 0.854c0.109 1.717 0.683 0.976 0.801 1.729 0.284 1.814 0.933 1.491 0.933 2.481 0 1.649-0.68 2.42-2.803 3.334-2.13 0.918-4.326 2.073-4.326 4.073v1h18v-1c0-2-2.197-3.155-4.328-4.072-2.123-0.914-2.801-1.684-2.801-3.334 0-0.99 0.647-0.667 0.932-2.481 0.119-0.753 0.692-0.012 0.803-1.729 0-0.684-0.314-0.854-0.314-0.854s0.158-1.014 0.221-1.793c0.065-0.817-0.398-2.561-2.3-3.096-0.333-0.34-0.558-0.881 0.466-1.424-2.24-0.105-2.761 1.067-3.954 1.929z"></path>
</symbol>
<symbol id="icon-facebook-with-circle" viewBox="0 0 20 20">
<title>facebook-with-circle</title>
<path d="M10 0.4c-5.302 0-9.6 4.298-9.6 9.6s4.298 9.6 9.6 9.6 9.6-4.298 9.6-9.6-4.298-9.6-9.6-9.6zM12.274 7.034h-1.443c-0.171 0-0.361 0.225-0.361 0.524v1.042h1.805l-0.273 1.486h-1.532v4.461h-1.703v-4.461h-1.545v-1.486h1.545v-0.874c0-1.254 0.87-2.273 2.064-2.273h1.443v1.581z"></path>
</symbol>
<symbol id="icon-google-with-circle" viewBox="0 0 20 20">
<title>google-with-circle</title>
<path d="M10 0.4c-5.302 0-9.6 4.298-9.6 9.6s4.298 9.6 9.6 9.6 9.6-4.298 9.6-9.6-4.298-9.6-9.6-9.6zM9.447 14.121c-0.603 0.293-1.252 0.324-1.503 0.324-0.048 0-0.075 0-0.075 0s-0.023 0-0.054 0c-0.392 0-2.343-0.090-2.343-1.867 0-1.746 2.125-1.883 2.776-1.883h0.017c-0.376-0.502-0.298-1.008-0.298-1.008-0.033 0.002-0.081 0.004-0.14 0.004-0.245 0-0.718-0.039-1.124-0.301-0.498-0.32-0.75-0.865-0.75-1.619 0-2.131 2.327-2.217 2.35-2.219h2.324v0.051c0 0.26-0.467 0.311-0.785 0.354-0.108 0.016-0.325 0.037-0.386 0.068 0.589 0.315 0.684 0.809 0.684 1.545 0 0.838-0.328 1.281-0.676 1.592-0.216 0.193-0.385 0.344-0.385 0.547 0 0.199 0.232 0.402 0.502 0.639 0.441 0.389 1.046 0.918 1.046 1.811 0 0.923-0.397 1.583-1.18 1.962zM14.5 10h-1.5v1.5h-1v-1.5h-1.5v-1h1.5v-1.5h1v1.5h1.5v1zM8.223 11.15c-0.052 0-0.104 0.002-0.157 0.006-0.444 0.033-0.854 0.199-1.15 0.469-0.294 0.266-0.444 0.602-0.423 0.941 0.045 0.711 0.808 1.127 1.735 1.061 0.912-0.066 1.52-0.592 1.476-1.303-0.042-0.668-0.623-1.174-1.481-1.174zM9.097 7.285c-0.242-0.85-0.632-1.102-1.238-1.102-0.065 0-0.131 0.010-0.194 0.027-0.263 0.075-0.472 0.294-0.588 0.62-0.119 0.33-0.126 0.674-0.024 1.066 0.185 0.701 0.683 1.209 1.185 1.209 0.066 0 0.132-0.008 0.194-0.027 0.549-0.154 0.893-0.992 0.665-1.793z"></path>
</symbol>
<symbol id="icon-instagram-with-circle" viewBox="0 0 20 20">
<title>instagram-with-circle</title>
<path d="M13 10c0 1.657-1.343 3-3 3s-3-1.343-3-3c0-0.171 0.018-0.338 0.049-0.5h-1.049v3.997c0 0.278 0.225 0.503 0.503 0.503h6.995c0.277 0 0.502-0.225 0.502-0.503v-3.997h-1.049c0.031 0.162 0.049 0.329 0.049 0.5zM10 12c1.104 0 2-0.896 2-2s-0.896-2-2-2-2 0.896-2 2 0.896 2 2 2zM12.4 7.9h1.199c0.166 0 0.301-0.135 0.301-0.3v-1.199c0-0.166-0.135-0.301-0.301-0.301h-1.199c-0.166 0-0.301 0.135-0.301 0.301v1.199c0.001 0.165 0.136 0.3 0.301 0.3zM10 0.4c-5.302 0-9.6 4.298-9.6 9.6s4.298 9.6 9.6 9.6c5.302 0 9.6-4.298 9.6-9.6s-4.298-9.6-9.6-9.6zM15 13.889c0 0.611-0.5 1.111-1.111 1.111h-7.778c-0.611 0-1.111-0.5-1.111-1.111v-7.778c0-0.611 0.5-1.111 1.111-1.111h7.778c0.611 0 1.111 0.5 1.111 1.111v7.778z"></path>
</symbol>
<symbol id="icon-twitter-with-circle" viewBox="0 0 20 20">
<title>twitter-with-circle</title>
<path d="M10 0.4c-5.302 0-9.6 4.298-9.6 9.6s4.298 9.6 9.6 9.6 9.6-4.298 9.6-9.6-4.298-9.6-9.6-9.6zM13.905 8.264c0.004 0.082 0.005 0.164 0.005 0.244 0 2.5-1.901 5.381-5.379 5.381-1.068 0-2.062-0.312-2.898-0.85 0.147 0.018 0.298 0.025 0.451 0.025 0.886 0 1.701-0.301 2.348-0.809-0.827-0.016-1.525-0.562-1.766-1.312 0.115 0.021 0.233 0.033 0.355 0.033 0.172 0 0.34-0.023 0.498-0.066-0.865-0.174-1.517-0.938-1.517-1.854v-0.023c0.255 0.141 0.547 0.227 0.857 0.237-0.508-0.34-0.841-0.918-0.841-1.575 0-0.346 0.093-0.672 0.256-0.951 0.933 1.144 2.325 1.896 3.897 1.977-0.033-0.139-0.049-0.283-0.049-0.432 0-1.043 0.846-1.891 1.891-1.891 0.543 0 1.035 0.23 1.38 0.598 0.431-0.086 0.835-0.242 1.2-0.459-0.141 0.441-0.44 0.812-0.831 1.047 0.383-0.047 0.747-0.148 1.086-0.299-0.253 0.379-0.574 0.713-0.943 0.979z"></path>
</symbol>
<symbol id="icon-google-plus3" viewBox="0 0 32 32">
<title>google-plus3</title>
<path d="M16 0c-8.838 0-16 7.162-16 16s7.162 16 16 16 16-7.163 16-16-7.163-16-16-16zM12 24c-4.425 0-8-3.575-8-8s3.575-8 8-8c2.162 0 3.969 0.787 5.363 2.094l-2.175 2.088c-0.594-0.569-1.631-1.231-3.188-1.231-2.731 0-4.963 2.263-4.963 5.050s2.231 5.050 4.963 5.050c3.169 0 4.356-2.275 4.538-3.45h-4.537v-2.744h7.556c0.069 0.4 0.125 0.8 0.125 1.325 0 4.575-3.063 7.819-7.681 7.819zM26 16v2h-2v-2h-2v-2h2v-2h2v2h2v2h-2z"></path>
</symbol>
</defs>
</svg>
